<svg width="42" height="37" viewBox="0 0 42 37" fill="none" xmlns="http://www.w3.org/2000/svg">
<path d="M12.7376 11.8126C12.7376 11.8126 8.83193 13.7734 12.7376 21.8557C12.7376 21.8557 7.5885 19.7036 4.36834 10.2503L3.20462 5.38819C3.20462 5.38819 2.48725 0.0478242 0.127925 0C0.127925 0 -2.74153 24.9642 18.6997 37C18.6997 37 19.6561 23.9918 17.0258 20.405C17.0418 20.4209 12.4985 13.0879 12.7376 11.8126Z" fill="#F8F9FA"/>
<path d="M28.8703 11.8126C28.8703 11.8126 32.776 13.7734 28.8703 21.8557C28.8703 21.8557 34.0194 19.7036 37.2395 10.2503L38.4033 5.38819C38.4033 5.38819 39.1206 0.0478242 41.48 0C41.48 0 44.3494 24.9642 22.9082 37C22.9082 37 21.9517 23.9918 24.5821 20.405C24.5661 20.4209 29.1094 13.0879 28.8703 11.8126Z" fill="#F8F9FA"/>
</svg>
